<svg height="512pt" viewBox="-117 0 512 512" width="512pt" xmlns="http://www.w3.org/2000/svg"><path d="m172.039062 397.648438v81.386718c0 18.207032-14.757812 32.964844-32.964843 32.964844s-32.964844-14.757812-32.964844-32.964844v-81.386718zm0 0" fill="#cf957a"/><path d="m139.074219 397.648438v114.351562c18.207031 0 32.964843-14.757812 32.964843-32.964844v-81.386718zm0 0" fill="#b27861"/><path d="m221.488281 412.074219h-164.828125c-31.242187 0-56.660156-25.417969-56.660156-56.660157v-130.320312l17.511719-86.019531h240.035156l20.601563 67.476562v148.863281c0 31.242188-25.417969 56.660157-56.660157 56.660157zm0 0" fill="#e63950"/><path d="m139.074219 176.675781v235.398438h82.414062c31.242188 0 56.660157-25.417969 56.660157-56.660157v-148.863281l-44.296876-54.597656-86.535156-14.425781zm0 0" fill="#ae2538"/><path d="m139.074219 0c-76.683594 0-139.074219 62.390625-139.074219 139.074219v90.011719c0-19.203126 15.566406-34.769532 34.769531-34.769532s34.769531 15.566406 34.769531 34.769532v8.113281c0 19.203125 15.5625 34.769531 34.765626 34.769531 19.203124 0 34.769531-15.566406 34.769531-34.769531v-54.472657c0-19.199218 15.566406-34.765624 34.769531-34.765624s34.769531 15.566406 34.769531 34.765624v19.703126c0 19.203124 15.5625 34.769531 34.765625 34.769531s34.769532-15.566407 34.769532-34.769531v-63.355469c0-76.683594-62.386719-139.074219-139.074219-139.074219zm0 0" fill="#deecf1"/><path d="m139.074219 0v182.726562c0-19.199218 15.566406-34.765624 34.769531-34.765624s34.769531 15.566406 34.769531 34.765624v19.703126c0 19.203124 15.5625 34.769531 34.765625 34.769531s34.769532-15.566407 34.769532-34.769531v-63.355469c0-76.683594-62.386719-139.074219-139.074219-139.074219zm0 0" fill="#c5d3dd"/></svg>